# xmcd
#
# Track frame offsets:
#  150
#  12957
#  27182
#  42120
#  58740
#  73277
#  85982
#  99527
#  117157
#  133017
#  150770
#  173680
#  191275
#  205385
#  229470
#
# Disc length: 3228 seconds
#
# Revision: 0
# Processed by: cddbd v1.5.2PL0 Copyright (c) Steve Scherf et al.
# Submitted via: AltoMP3_Maker 3.0
#
DISCID=c40c9a0f
DTITLE=Various Artist - Estação Lapa
DYEAR=1900
DGENRE=
TTITLE0=Sem compromisso
TTITLE1=Brasão de Orfeu
TTITLE2=Vaso Ruim
TTITLE3=Dama do cassino - Jussara Silveira
TTITLE4=Tive sim
TTITLE5=Pra que discutir com madame 
TTITLE6=Samba dos Passarinhos
TTITLE7=Banho de Manjericão
TTITLE8=As coisas que mamãe me ensinou
TTITLE9=Bicho do mato
TTITLE10=São Gonça
TTITLE11=Entretanto
TTITLE12=Recado
TTITLE13=A volta do malandro/Largp da Lapa
TTITLE14=Tinindo trincando
EXTD=
EXTT0=
EXTT1=
EXTT2=
EXTT3=
EXTT4=
EXTT5=
EXTT6=
EXTT7=
EXTT8=
EXTT9=
EXTT10=
EXTT11=
EXTT12=
EXTT13=
EXTT14=
PLAYORDER=
